<svg xmlns="http://www.w3.org/2000/svg" viewBox="0 0 128 128" width="128" height="128" role="img" aria-label="Shorebound">
<defs><clipPath id="sb-coastline"><rect width="128" height="128" rx="28"/></clipPath></defs>
<g clip-path="url(#sb-coastline)"><rect width="128" height="128" fill="#075bd8"/><path d="M-14 86C-5.667 85.667 2.667 85.333 11 85C12.667 83.99 14.25 82.892 16 81.97C17.75 81.049 19.667 80.169 21.5 79.471C23.333 78.773 25.167 78.233 27 77.783C28.833 77.333 30.667 77.032 32.5 76.771C34.333 76.509 36.167 76.352 38 76.213C39.833 76.074 41.667 76.003 43.5 75.937C45.333 75.871 47.833 75.84 49 75.818C50.167 75.796 50 75.811 50.5 75.807C51.5 71.805 52.5 67.802 53.5 63.8C55.333 66.933 57.25 71.159 59 73.2C60.75 75.241 62.333 75.099 64 76.048C65.333 76.125 66.667 76.19 68 76.279C69.333 76.368 70.667 76.482 72 76.584C72.733 73.589 73.467 70.595 74.2 67.6C76.067 70.133 78.167 73.429 79.8 75.2C81.433 76.971 82.6 77.217 84 78.226C86.333 78.705 88.417 79.035 91 79.664C93.583 80.293 96.667 81.221 99.5 82C101.933 80 103.133 78.133 106.8 76C110.467 73.867 116.6 71.467 121.5 69.2C123.333 72.967 124.917 77.7 127 80.5C129.083 83.3 131.667 84.167 134 86C136.667 86 139.333 86 142 86C142 104.667 142 123.333 142 142C90 142 38 142 -14 142C-14 123.333 -14 104.667 -14 86Z" fill="#8dff00"/><circle cx="20.8" cy="86.2" r="4.2" fill="#075bd8"/></g>
</svg>
